General
Complete name                    : The.Runaways.2010.avi
Format                           : AVI
File size                        : 1.37 GiB
Duration                         : 1h 46mn
Overall bit rate                 : 1 841 Kbps

Video

Format                           : MPEG-4 Visual
Codec ID/Hint                    : XviD
Duration                         : 1h 46mn
Bit rate                         : 1 382 Kbps
Width                            : 720 pixels
Height                           : 364 pixels
Display aspect ratio             : 2.35:1
Stream size                      : 1.03 GiB (75%)
Writing library                  : XviD 1.1.2 (UTC 2006-11-01)

Audio

Format                           : AC-3
Duration                         : 1h 46mn
Bit rate                         : 448 Kbps
Channel(s)                       : 6 channels
Channel positions                : Front: L C R, Side: L R, LFE
Sampling rate                    : 48.0 KHz
Stream size                      : 342 MiB (24%)
Alignment                        : Aligned on interleaves